<svg width="60" height="60" viewBox="0 0 60 60" fill="none" xmlns="http://www.w3.org/2000/svg">
<path d="M39.36 37.8056C36.5268 37.62 34.2993 35.2762 34.2993 32.4112C34.2993 32.3156 34.3012 32.22 34.3068 32.1244V32.1375C34.3012 32.0475 34.2975 31.9425 34.2975 31.8356C34.2975 28.9763 36.5287 26.64 39.345 26.4694H39.36C42.1893 26.6231 44.4243 28.9538 44.4243 31.8075C44.4243 31.9238 44.4206 32.0381 44.4131 32.1525V32.1375C44.4187 32.2312 44.4225 32.3419 44.4225 32.4525C44.4225 35.3081 42.1893 37.6425 39.3731 37.8038H39.3581L39.36 37.8056ZM20.6737 37.8056C17.8406 37.62 15.6131 35.2762 15.6131 32.4112C15.6131 32.3156 15.615 32.22 15.6206 32.1244V32.1375C15.615 32.0475 15.6112 31.9425 15.6112 31.8356C15.6112 28.9763 17.8425 26.64 20.6587 26.4694H20.6737C23.5031 26.6231 25.7381 28.9538 25.7381 31.8075C25.7381 31.9238 25.7343 32.0381 25.7268 32.1525V32.1375C25.7325 32.2275 25.7362 32.3325 25.7362 32.4394C25.7362 35.2988 23.505 37.635 20.6887 37.8056H20.6737ZM49.4868 12.1219C46.1812 10.5619 42.3412 9.32812 38.3212 8.61375L38.0418 8.5725C38.0325 8.57062 38.0212 8.56875 38.01 8.56875C37.9443 8.56875 37.8881 8.60438 37.8581 8.65688C37.4193 9.4275 36.9431 10.3894 36.5137 11.3756L36.4331 11.5837C34.5018 11.2744 32.2743 11.0981 30.0056 11.0981C27.7368 11.0981 25.5093 11.2744 23.3362 11.6137L23.5781 11.5819C23.0718 10.4006 22.5881 9.44062 22.0537 8.51062L22.1306 8.655C22.0987 8.60063 22.0406 8.56687 21.975 8.56687C21.9656 8.56687 21.9543 8.56688 21.945 8.56875C17.6456 9.32438 13.8056 10.5562 10.2168 12.2381L10.5 12.1181C10.4681 12.1312 10.4418 12.1538 10.425 12.1819C5.07372 19.7588 1.87122 29.1863 1.87122 39.3619C1.87122 41.0625 1.96122 42.7406 2.13559 44.3944L2.11872 44.1881C2.12434 44.2425 2.15247 44.2875 2.19184 44.3194C6.20434 47.3212 10.8693 49.74 15.9037 51.3281L16.2337 51.4181C16.2487 51.4238 16.2675 51.4256 16.2862 51.4256C16.3462 51.4256 16.3987 51.3975 16.4306 51.3544C17.4337 50.0044 18.3881 48.4744 19.215 46.8694L19.3031 46.6819C19.3143 46.6594 19.3218 46.6313 19.3218 46.6013C19.3218 46.5244 19.2731 46.4606 19.2056 46.4344H19.2037C17.4937 45.7744 16.0481 45.0713 14.6718 44.265L14.8162 44.3438C14.7618 44.3119 14.7262 44.2537 14.7262 44.1881C14.7262 44.13 14.7543 44.0775 14.7975 44.0456C15.0918 43.8244 15.3881 43.5956 15.6693 43.3631C15.6993 43.3388 15.7387 43.3238 15.78 43.3238C15.8062 43.3238 15.8306 43.3294 15.8512 43.3388H15.8493C19.9893 45.3281 24.8493 46.4906 29.9793 46.4906C35.1093 46.4906 39.9712 45.3281 44.31 43.2525L44.1093 43.3388C44.1318 43.3275 44.1562 43.3219 44.1843 43.3219C44.2256 43.3219 44.265 43.3369 44.295 43.3612C44.5762 43.5937 44.8706 43.8262 45.1687 44.0456C45.2118 44.0794 45.24 44.1319 45.24 44.19C45.24 44.2556 45.2043 44.3119 45.1537 44.3438C43.9143 45.0844 42.4687 45.7856 40.9631 46.365L40.7662 46.4325C40.6987 46.4588 40.65 46.5244 40.65 46.5994C40.65 46.6294 40.6575 46.6575 40.6706 46.6819C41.61 48.4819 42.5625 50.0081 43.6162 51.4575L43.5412 51.3506C43.5731 51.3956 43.6275 51.4256 43.6856 51.4256C43.7043 51.4256 43.7231 51.4219 43.74 51.4181C49.1118 49.7456 53.7843 47.3269 57.9243 44.2331L57.8025 44.3213C57.8437 44.2913 57.87 44.2444 57.8756 44.1919C58.0387 42.7219 58.1306 41.0156 58.1306 39.2888C58.1306 29.1356 54.9206 19.7325 49.4625 12.0375L49.56 12.1838C49.545 12.1538 49.5187 12.1294 49.4887 12.1162L49.4868 12.1219Z" fill="black"/>
</svg>
