<svg width="60" height="60" viewBox="0 0 60 60" fill="none" xmlns="http://www.w3.org/2000/svg">
<path d="M13.125 11.2803H3.74023L5.63867 19.1543H7.37695V47.8281C6.34336 47.8281 5.50488 48.6666 5.50488 49.7002V52.2861C4.39765 52.2863 3.5 53.1837 3.5 54.291V56H21.2793V53.7559C21.2791 52.9439 20.6206 52.2861 19.8086 52.2861V49.5664C19.8086 48.6068 19.0309 47.8283 18.0713 47.8281V34.29C18.0713 27.5378 23.0277 21.943 29.501 20.9463C35.9736 21.9435 40.9297 27.5382 40.9297 34.29V47.8281C39.9699 47.8281 39.1914 48.6066 39.1914 49.5664V52.2861C38.3796 52.2863 37.7218 52.944 37.7217 53.7559V56H55.5V54.291C55.5 53.1836 54.6025 52.2861 53.4951 52.2861V49.7002C53.4951 48.6667 52.6575 47.8283 51.624 47.8281V19.1543H53.3613L55.2598 11.2803H45.876V4H13.125V11.2803Z" fill="black"/>
</svg>
