<svg width="60" height="60" viewBox="0 0 60 60" fill="none" xmlns="http://www.w3.org/2000/svg">
<path fill-rule="evenodd" clip-rule="evenodd" d="M55.536 24.8103H30.5494C30.5494 27.4088 30.5494 32.6055 30.5334 35.204H45.0125C44.4577 37.8026 42.4905 41.4412 39.711 43.2732C39.711 43.2732 39.7056 43.2885 39.7003 43.2859C36.0049 45.7259 31.1281 46.2796 27.507 45.552C21.8311 44.4242 17.3393 40.3079 15.5154 35.0796C15.526 35.0718 15.534 34.9997 15.542 34.9945C14.4005 31.7515 14.4005 27.4088 15.542 24.8103H15.5394C17.0101 20.0342 21.6373 15.6766 27.3212 14.4839C31.8927 13.5146 37.0509 14.5639 40.8446 18.1135C41.349 17.6198 47.8265 11.2951 48.3124 10.7806C35.3518 -0.957032 14.5996 3.17195 6.83437 18.3293H6.83171C6.83171 18.3293 6.83439 18.3299 6.81846 18.3585C2.97702 25.8033 3.1363 34.5758 6.845 41.6647C6.83439 41.6724 6.82643 41.6772 6.81846 41.685C10.1794 48.2074 16.296 53.2094 23.6656 55.1142C31.4945 57.167 41.4578 55.7639 48.1318 49.7275L48.1399 49.7351C53.7945 44.642 57.3147 35.9659 55.536 24.8103Z" fill="black"/>
</svg>
